<mxfile host="app.diagrams.net" modified="2023-09-29T14:12:20.579Z" agent="Mozilla/5.0 (Windows NT 10.0; Win64; x64) AppleWebKit/537.36 (KHTML, like Gecko) Chrome/117.0.0.0 Safari/537.36" etag="l5MBPsfYogM6F-NB_rDn" version="21.8.0" type="github">
  <diagram name="Página-1" id="0OrhTxynxeyhdzPTiHgk">
    <mxGraphModel dx="2117" dy="542" grid="1" gridSize="10" guides="1" tooltips="1" connect="1" arrows="1" fold="1" page="1" pageScale="1" pageWidth="827" pageHeight="1169" math="0" shadow="0">
      <root>
        <mxCell id="0" />
        <mxCell id="1" parent="0" />
        <mxCell id="1SbvGJPnJb_08BsddUQM-1" value="&lt;b&gt;&amp;nbsp;Gerenciamento de projetos (Adicionar, Editar, Ler, Excluir)&lt;/b&gt;" style="text;html=1;strokeColor=none;fillColor=none;align=center;verticalAlign=middle;whiteSpace=wrap;rounded=0;" vertex="1" parent="1">
          <mxGeometry x="-240" y="10" width="440" height="50" as="geometry" />
        </mxCell>
        <mxCell id="1SbvGJPnJb_08BsddUQM-2" value="" style="ellipse;html=1;shape=startState;fillColor=#000000;strokeColor=#ff0000;" vertex="1" parent="1">
          <mxGeometry x="230" y="60" width="30" height="30" as="geometry" />
        </mxCell>
        <mxCell id="1SbvGJPnJb_08BsddUQM-3" value="" style="edgeStyle=orthogonalEdgeStyle;html=1;verticalAlign=bottom;endArrow=open;endSize=8;strokeColor=#ff0000;rounded=0;" edge="1" source="1SbvGJPnJb_08BsddUQM-2" parent="1">
          <mxGeometry relative="1" as="geometry">
            <mxPoint x="245" y="150" as="targetPoint" />
          </mxGeometry>
        </mxCell>
        <mxCell id="1SbvGJPnJb_08BsddUQM-86" style="edgeStyle=orthogonalEdgeStyle;rounded=0;orthogonalLoop=1;jettySize=auto;html=1;" edge="1" parent="1" source="1SbvGJPnJb_08BsddUQM-5" target="1SbvGJPnJb_08BsddUQM-84">
          <mxGeometry relative="1" as="geometry" />
        </mxCell>
        <mxCell id="1SbvGJPnJb_08BsddUQM-5" value="Cadastrar novo projeto" style="html=1;whiteSpace=wrap;" vertex="1" parent="1">
          <mxGeometry x="70" y="210" width="110" height="50" as="geometry" />
        </mxCell>
        <mxCell id="1SbvGJPnJb_08BsddUQM-6" value="Editar projeto" style="html=1;whiteSpace=wrap;" vertex="1" parent="1">
          <mxGeometry x="320" y="340" width="110" height="50" as="geometry" />
        </mxCell>
        <mxCell id="1SbvGJPnJb_08BsddUQM-7" value="Selecionar projeto" style="html=1;whiteSpace=wrap;" vertex="1" parent="1">
          <mxGeometry x="320" y="210" width="110" height="50" as="geometry" />
        </mxCell>
        <mxCell id="1SbvGJPnJb_08BsddUQM-8" value="Excluir projeto" style="html=1;whiteSpace=wrap;" vertex="1" parent="1">
          <mxGeometry x="530" y="340" width="110" height="50" as="geometry" />
        </mxCell>
        <mxCell id="1SbvGJPnJb_08BsddUQM-9" value="" style="line;strokeWidth=1;fillColor=none;align=left;verticalAlign=middle;spacingTop=-1;spacingLeft=3;spacingRight=3;rotatable=0;labelPosition=right;points=[];portConstraint=eastwest;strokeColor=inherit;" vertex="1" parent="1">
          <mxGeometry x="-190" y="160" width="915" height="8" as="geometry" />
        </mxCell>
        <mxCell id="1SbvGJPnJb_08BsddUQM-10" value="" style="endArrow=classic;html=1;rounded=0;entryX=0.5;entryY=0;entryDx=0;entryDy=0;" edge="1" parent="1" target="1SbvGJPnJb_08BsddUQM-5">
          <mxGeometry width="50" height="50" relative="1" as="geometry">
            <mxPoint x="125" y="160" as="sourcePoint" />
            <mxPoint x="70" y="230" as="targetPoint" />
          </mxGeometry>
        </mxCell>
        <mxCell id="1SbvGJPnJb_08BsddUQM-12" value="" style="endArrow=classic;html=1;rounded=0;exitX=0.617;exitY=0.05;exitDx=0;exitDy=0;exitPerimeter=0;entryX=0.5;entryY=0;entryDx=0;entryDy=0;" edge="1" parent="1" source="1SbvGJPnJb_08BsddUQM-9" target="1SbvGJPnJb_08BsddUQM-7">
          <mxGeometry width="50" height="50" relative="1" as="geometry">
            <mxPoint x="374.5" y="160" as="sourcePoint" />
            <mxPoint x="375" y="220" as="targetPoint" />
          </mxGeometry>
        </mxCell>
        <mxCell id="1SbvGJPnJb_08BsddUQM-13" value="Início" style="text;html=1;strokeColor=none;fillColor=none;align=center;verticalAlign=middle;whiteSpace=wrap;rounded=0;" vertex="1" parent="1">
          <mxGeometry x="215" y="30" width="60" height="30" as="geometry" />
        </mxCell>
        <mxCell id="1SbvGJPnJb_08BsddUQM-15" value="" style="line;strokeWidth=1;fillColor=none;align=left;verticalAlign=middle;spacingTop=-1;spacingLeft=3;spacingRight=3;rotatable=0;labelPosition=right;points=[];portConstraint=eastwest;strokeColor=inherit;" vertex="1" parent="1">
          <mxGeometry x="260" y="300" width="485" height="8" as="geometry" />
        </mxCell>
        <mxCell id="1SbvGJPnJb_08BsddUQM-18" value="" style="endArrow=classic;html=1;rounded=0;entryX=0.5;entryY=0;entryDx=0;entryDy=0;exitX=0.237;exitY=0.35;exitDx=0;exitDy=0;exitPerimeter=0;" edge="1" parent="1" source="1SbvGJPnJb_08BsddUQM-15" target="1SbvGJPnJb_08BsddUQM-6">
          <mxGeometry width="50" height="50" relative="1" as="geometry">
            <mxPoint x="375" y="310" as="sourcePoint" />
            <mxPoint x="374.5" y="358" as="targetPoint" />
          </mxGeometry>
        </mxCell>
        <mxCell id="1SbvGJPnJb_08BsddUQM-19" value="" style="endArrow=classic;html=1;rounded=0;entryX=0.5;entryY=0;entryDx=0;entryDy=0;exitX=0.669;exitY=0;exitDx=0;exitDy=0;exitPerimeter=0;" edge="1" parent="1" source="1SbvGJPnJb_08BsddUQM-15" target="1SbvGJPnJb_08BsddUQM-8">
          <mxGeometry width="50" height="50" relative="1" as="geometry">
            <mxPoint x="584.5" y="308" as="sourcePoint" />
            <mxPoint x="584.5" y="358" as="targetPoint" />
          </mxGeometry>
        </mxCell>
        <mxCell id="1SbvGJPnJb_08BsddUQM-21" style="edgeStyle=orthogonalEdgeStyle;rounded=0;orthogonalLoop=1;jettySize=auto;html=1;entryX=0.454;entryY=0;entryDx=0;entryDy=0;entryPerimeter=0;exitX=1;exitY=0.5;exitDx=0;exitDy=0;" edge="1" parent="1" source="1SbvGJPnJb_08BsddUQM-7" target="1SbvGJPnJb_08BsddUQM-15">
          <mxGeometry relative="1" as="geometry" />
        </mxCell>
        <mxCell id="1SbvGJPnJb_08BsddUQM-22" value="" style="strokeWidth=2;html=1;shape=mxgraph.flowchart.decision;whiteSpace=wrap;" vertex="1" parent="1">
          <mxGeometry x="562.5" y="450" width="45" height="40" as="geometry" />
        </mxCell>
        <mxCell id="1SbvGJPnJb_08BsddUQM-23" value="[Confirmar exclusão]" style="text;html=1;strokeColor=none;fillColor=none;align=center;verticalAlign=middle;whiteSpace=wrap;rounded=0;" vertex="1" parent="1">
          <mxGeometry x="502.5" y="450" width="60" height="30" as="geometry" />
        </mxCell>
        <mxCell id="1SbvGJPnJb_08BsddUQM-24" style="edgeStyle=orthogonalEdgeStyle;rounded=0;orthogonalLoop=1;jettySize=auto;html=1;entryX=0.5;entryY=0;entryDx=0;entryDy=0;entryPerimeter=0;" edge="1" parent="1" source="1SbvGJPnJb_08BsddUQM-8" target="1SbvGJPnJb_08BsddUQM-22">
          <mxGeometry relative="1" as="geometry" />
        </mxCell>
        <mxCell id="1SbvGJPnJb_08BsddUQM-83" style="edgeStyle=orthogonalEdgeStyle;rounded=0;orthogonalLoop=1;jettySize=auto;html=1;entryX=0.5;entryY=0;entryDx=0;entryDy=0;" edge="1" parent="1" source="1SbvGJPnJb_08BsddUQM-25" target="1SbvGJPnJb_08BsddUQM-81">
          <mxGeometry relative="1" as="geometry" />
        </mxCell>
        <mxCell id="1SbvGJPnJb_08BsddUQM-25" value="Notifica exclusão do projeto&amp;nbsp;" style="rounded=0;whiteSpace=wrap;html=1;" vertex="1" parent="1">
          <mxGeometry x="525" y="545" width="120" height="40" as="geometry" />
        </mxCell>
        <mxCell id="1SbvGJPnJb_08BsddUQM-26" style="edgeStyle=orthogonalEdgeStyle;rounded=0;orthogonalLoop=1;jettySize=auto;html=1;entryX=0.5;entryY=0;entryDx=0;entryDy=0;" edge="1" parent="1" source="1SbvGJPnJb_08BsddUQM-22" target="1SbvGJPnJb_08BsddUQM-25">
          <mxGeometry relative="1" as="geometry" />
        </mxCell>
        <mxCell id="1SbvGJPnJb_08BsddUQM-30" value="Sim" style="text;html=1;strokeColor=none;fillColor=none;align=center;verticalAlign=middle;whiteSpace=wrap;rounded=0;" vertex="1" parent="1">
          <mxGeometry x="540" y="500" width="60" height="30" as="geometry" />
        </mxCell>
        <mxCell id="1SbvGJPnJb_08BsddUQM-32" style="edgeStyle=orthogonalEdgeStyle;rounded=0;orthogonalLoop=1;jettySize=auto;html=1;entryX=0.784;entryY=0;entryDx=0;entryDy=0;entryPerimeter=0;exitX=1;exitY=0.5;exitDx=0;exitDy=0;exitPerimeter=0;" edge="1" parent="1" source="1SbvGJPnJb_08BsddUQM-22" target="1SbvGJPnJb_08BsddUQM-15">
          <mxGeometry relative="1" as="geometry">
            <Array as="points">
              <mxPoint x="765" y="470" />
              <mxPoint x="765" y="280" />
              <mxPoint x="640" y="280" />
            </Array>
          </mxGeometry>
        </mxCell>
        <mxCell id="1SbvGJPnJb_08BsddUQM-33" value="Não" style="text;html=1;strokeColor=none;fillColor=none;align=center;verticalAlign=middle;whiteSpace=wrap;rounded=0;" vertex="1" parent="1">
          <mxGeometry x="627.5" y="440" width="60" height="30" as="geometry" />
        </mxCell>
        <mxCell id="1SbvGJPnJb_08BsddUQM-63" style="edgeStyle=orthogonalEdgeStyle;rounded=0;orthogonalLoop=1;jettySize=auto;html=1;" edge="1" parent="1" source="1SbvGJPnJb_08BsddUQM-35">
          <mxGeometry relative="1" as="geometry">
            <mxPoint x="375" y="510" as="targetPoint" />
          </mxGeometry>
        </mxCell>
        <mxCell id="1SbvGJPnJb_08BsddUQM-35" value="Fornecer novos dados&amp;nbsp;" style="rounded=0;whiteSpace=wrap;html=1;" vertex="1" parent="1">
          <mxGeometry x="315" y="435" width="120" height="45" as="geometry" />
        </mxCell>
        <mxCell id="1SbvGJPnJb_08BsddUQM-36" style="edgeStyle=orthogonalEdgeStyle;rounded=0;orthogonalLoop=1;jettySize=auto;html=1;" edge="1" parent="1" source="1SbvGJPnJb_08BsddUQM-6" target="1SbvGJPnJb_08BsddUQM-35">
          <mxGeometry relative="1" as="geometry" />
        </mxCell>
        <mxCell id="1SbvGJPnJb_08BsddUQM-80" style="edgeStyle=orthogonalEdgeStyle;rounded=0;orthogonalLoop=1;jettySize=auto;html=1;entryX=0.5;entryY=0;entryDx=0;entryDy=0;" edge="1" parent="1" source="1SbvGJPnJb_08BsddUQM-39" target="1SbvGJPnJb_08BsddUQM-78">
          <mxGeometry relative="1" as="geometry" />
        </mxCell>
        <mxCell id="1SbvGJPnJb_08BsddUQM-39" value="Notifica alteração do projeto" style="rounded=0;whiteSpace=wrap;html=1;" vertex="1" parent="1">
          <mxGeometry x="352.5" y="650" width="120" height="45" as="geometry" />
        </mxCell>
        <mxCell id="1SbvGJPnJb_08BsddUQM-71" style="edgeStyle=orthogonalEdgeStyle;rounded=0;orthogonalLoop=1;jettySize=auto;html=1;entryX=0.5;entryY=0;entryDx=0;entryDy=0;" edge="1" parent="1" source="1SbvGJPnJb_08BsddUQM-40" target="1SbvGJPnJb_08BsddUQM-39">
          <mxGeometry relative="1" as="geometry" />
        </mxCell>
        <mxCell id="1SbvGJPnJb_08BsddUQM-72" style="edgeStyle=orthogonalEdgeStyle;rounded=0;orthogonalLoop=1;jettySize=auto;html=1;entryX=1;entryY=0.5;entryDx=0;entryDy=0;" edge="1" parent="1" source="1SbvGJPnJb_08BsddUQM-40" target="1SbvGJPnJb_08BsddUQM-35">
          <mxGeometry relative="1" as="geometry">
            <Array as="points">
              <mxPoint x="480" y="570" />
              <mxPoint x="480" y="458" />
            </Array>
          </mxGeometry>
        </mxCell>
        <mxCell id="1SbvGJPnJb_08BsddUQM-40" value="" style="strokeWidth=2;html=1;shape=mxgraph.flowchart.decision;whiteSpace=wrap;" vertex="1" parent="1">
          <mxGeometry x="390" y="550" width="45" height="40" as="geometry" />
        </mxCell>
        <mxCell id="1SbvGJPnJb_08BsddUQM-43" value="[Confirmar alteração]" style="text;html=1;strokeColor=none;fillColor=none;align=center;verticalAlign=middle;whiteSpace=wrap;rounded=0;" vertex="1" parent="1">
          <mxGeometry x="340" y="530" width="60" height="30" as="geometry" />
        </mxCell>
        <mxCell id="1SbvGJPnJb_08BsddUQM-47" value="Sim" style="text;html=1;strokeColor=none;fillColor=none;align=center;verticalAlign=middle;whiteSpace=wrap;rounded=0;" vertex="1" parent="1">
          <mxGeometry x="400" y="610" width="60" height="30" as="geometry" />
        </mxCell>
        <mxCell id="1SbvGJPnJb_08BsddUQM-68" style="edgeStyle=orthogonalEdgeStyle;rounded=0;orthogonalLoop=1;jettySize=auto;html=1;entryX=0;entryY=0.5;entryDx=0;entryDy=0;" edge="1" parent="1" source="1SbvGJPnJb_08BsddUQM-50" target="1SbvGJPnJb_08BsddUQM-35">
          <mxGeometry relative="1" as="geometry">
            <Array as="points">
              <mxPoint x="180" y="570" />
              <mxPoint x="180" y="458" />
            </Array>
          </mxGeometry>
        </mxCell>
        <mxCell id="1SbvGJPnJb_08BsddUQM-75" style="edgeStyle=orthogonalEdgeStyle;rounded=0;orthogonalLoop=1;jettySize=auto;html=1;" edge="1" parent="1" source="1SbvGJPnJb_08BsddUQM-50" target="1SbvGJPnJb_08BsddUQM-74">
          <mxGeometry relative="1" as="geometry" />
        </mxCell>
        <mxCell id="1SbvGJPnJb_08BsddUQM-50" value="" style="strokeWidth=2;html=1;shape=mxgraph.flowchart.decision;whiteSpace=wrap;" vertex="1" parent="1">
          <mxGeometry x="262.5" y="550" width="45" height="40" as="geometry" />
        </mxCell>
        <mxCell id="1SbvGJPnJb_08BsddUQM-51" value="[Cancelar atualização]" style="text;html=1;strokeColor=none;fillColor=none;align=center;verticalAlign=middle;whiteSpace=wrap;rounded=0;" vertex="1" parent="1">
          <mxGeometry x="210" y="530" width="60" height="30" as="geometry" />
        </mxCell>
        <mxCell id="1SbvGJPnJb_08BsddUQM-58" value="Não" style="text;html=1;strokeColor=none;fillColor=none;align=center;verticalAlign=middle;whiteSpace=wrap;rounded=0;" vertex="1" parent="1">
          <mxGeometry x="130" y="519" width="60" height="30" as="geometry" />
        </mxCell>
        <mxCell id="1SbvGJPnJb_08BsddUQM-60" value="Sim" style="text;html=1;strokeColor=none;fillColor=none;align=center;verticalAlign=middle;whiteSpace=wrap;rounded=0;" vertex="1" parent="1">
          <mxGeometry x="240" y="600" width="60" height="30" as="geometry" />
        </mxCell>
        <mxCell id="1SbvGJPnJb_08BsddUQM-61" value="" style="line;strokeWidth=1;fillColor=none;align=left;verticalAlign=middle;spacingTop=-1;spacingLeft=3;spacingRight=3;rotatable=0;labelPosition=right;points=[];portConstraint=eastwest;strokeColor=inherit;" vertex="1" parent="1">
          <mxGeometry x="250" y="511" width="210" height="8" as="geometry" />
        </mxCell>
        <mxCell id="1SbvGJPnJb_08BsddUQM-66" value="" style="endArrow=classic;html=1;rounded=0;entryX=0.5;entryY=0;entryDx=0;entryDy=0;exitX=0.237;exitY=0.35;exitDx=0;exitDy=0;exitPerimeter=0;" edge="1" parent="1">
          <mxGeometry width="50" height="50" relative="1" as="geometry">
            <mxPoint x="284.5" y="513" as="sourcePoint" />
            <mxPoint x="284.5" y="550" as="targetPoint" />
          </mxGeometry>
        </mxCell>
        <mxCell id="1SbvGJPnJb_08BsddUQM-67" value="" style="endArrow=classic;html=1;rounded=0;entryX=0.5;entryY=0;entryDx=0;entryDy=0;exitX=0.237;exitY=0.35;exitDx=0;exitDy=0;exitPerimeter=0;" edge="1" parent="1">
          <mxGeometry width="50" height="50" relative="1" as="geometry">
            <mxPoint x="412" y="513" as="sourcePoint" />
            <mxPoint x="412" y="550" as="targetPoint" />
          </mxGeometry>
        </mxCell>
        <mxCell id="1SbvGJPnJb_08BsddUQM-73" value="Não" style="text;html=1;strokeColor=none;fillColor=none;align=center;verticalAlign=middle;whiteSpace=wrap;rounded=0;" vertex="1" parent="1">
          <mxGeometry x="435" y="530" width="60" height="30" as="geometry" />
        </mxCell>
        <mxCell id="1SbvGJPnJb_08BsddUQM-74" value="" style="ellipse;html=1;shape=endState;fillColor=#000000;strokeColor=#ff0000;" vertex="1" parent="1">
          <mxGeometry x="270" y="650" width="30" height="30" as="geometry" />
        </mxCell>
        <mxCell id="1SbvGJPnJb_08BsddUQM-76" value="Fim" style="text;html=1;strokeColor=none;fillColor=none;align=center;verticalAlign=middle;whiteSpace=wrap;rounded=0;" vertex="1" parent="1">
          <mxGeometry x="255" y="677.5" width="60" height="30" as="geometry" />
        </mxCell>
        <mxCell id="1SbvGJPnJb_08BsddUQM-78" value="" style="ellipse;html=1;shape=endState;fillColor=#000000;strokeColor=#ff0000;" vertex="1" parent="1">
          <mxGeometry x="397.5" y="730" width="30" height="30" as="geometry" />
        </mxCell>
        <mxCell id="1SbvGJPnJb_08BsddUQM-79" value="Fim" style="text;html=1;strokeColor=none;fillColor=none;align=center;verticalAlign=middle;whiteSpace=wrap;rounded=0;" vertex="1" parent="1">
          <mxGeometry x="384" y="760" width="60" height="30" as="geometry" />
        </mxCell>
        <mxCell id="1SbvGJPnJb_08BsddUQM-81" value="" style="ellipse;html=1;shape=endState;fillColor=#000000;strokeColor=#ff0000;" vertex="1" parent="1">
          <mxGeometry x="570" y="620" width="30" height="30" as="geometry" />
        </mxCell>
        <mxCell id="1SbvGJPnJb_08BsddUQM-82" value="Fim" style="text;html=1;strokeColor=none;fillColor=none;align=center;verticalAlign=middle;whiteSpace=wrap;rounded=0;" vertex="1" parent="1">
          <mxGeometry x="555" y="647.5" width="60" height="30" as="geometry" />
        </mxCell>
        <mxCell id="1SbvGJPnJb_08BsddUQM-84" value="" style="ellipse;html=1;shape=endState;fillColor=#000000;strokeColor=#ff0000;" vertex="1" parent="1">
          <mxGeometry x="110" y="300" width="30" height="30" as="geometry" />
        </mxCell>
        <mxCell id="1SbvGJPnJb_08BsddUQM-85" value="Fim" style="text;html=1;strokeColor=none;fillColor=none;align=center;verticalAlign=middle;whiteSpace=wrap;rounded=0;" vertex="1" parent="1">
          <mxGeometry x="95" y="330" width="60" height="30" as="geometry" />
        </mxCell>
      </root>
    </mxGraphModel>
  </diagram>
</mxfile>
